<svg xmlns="http://www.w3.org/2000/svg" version="1.1" xmlns:xlink="http://www.w3.org/1999/xlink" xmlns:svgjs="http://svgjs.dev/svgjs" width="1000" height="1000" viewBox="0 0 1000 1000"><rect width="1000" height="1000" fill="#000000"></rect><g transform="matrix(0.7,0,0,0.7,150,281.25)"><svg viewBox="0 0 576 360" data-background-color="#ffffff" preserveAspectRatio="xMidYMid meet" height="625" width="1000" xmlns="http://www.w3.org/2000/svg" xmlns:xlink="http://www.w3.org/1999/xlink"><g id="tight-bounds" transform="matrix(1,0,0,1,0,0)"><svg viewBox="0 0 576 360" height="360" width="576"><g><svg></svg></g><g><svg viewBox="0 0 576 360" height="360" width="576"><g><path transform="translate(288,180) scale(180,180)" d="M-0.866-0.5l0.866-0.5 0.866 0.5 0 1-0.866 0.5-0.866-0.5z" fill="#ffffff" fill-rule="nonzero" stroke="none" stroke-width="1" stroke-linecap="butt" stroke-linejoin="miter" stroke-miterlimit="10" stroke-dasharray="" stroke-dashoffset="0" font-family="none" font-weight="none" font-size="none" text-anchor="none" style="mix-blend-mode: normal" data-fill-palette-color="tertiary"></path></g><g transform="matrix(1,0,0,1,224.2602637715234,99)"><svg viewBox="0 0 127.47947245695318 162" height="162" width="127.47947245695318"><g><svg viewBox="0 0 127.47947245695318 162" height="162" width="127.47947245695318"><g><svg viewBox="0 0 230.39999999999998 292.79066880829544" height="162" width="127.47947245695318"><g transform="matrix(1,0,0,1,0,161.264237643589)"><svg viewBox="0 0 230.39999999999998 131.5264311647064" height="131.5264311647064" width="230.39999999999998"><g id="textblocktransform"><svg viewBox="0 0 230.39999999999998 131.5264311647064" height="131.5264311647064" width="230.39999999999998" id="textblock"><g><svg viewBox="0 0 230.39999999999998 95.06155878467635" height="95.06155878467635" width="230.39999999999998"><g transform="matrix(1,0,0,1,0,0)"><svg width="230.39999999999998" viewBox="2.2 -35 113.53999999999999 46.85" height="95.06155878467635" data-palette-color="#ffffff"><path d="M2.2-1.85L3.6-6.65Q6.95-4.95 10.48-4.95 14-4.95 14-7.55L14-7.55Q14-9.95 10-11.1L10-11.1Q8.3-11.55 6.63-12.18 4.95-12.8 3.78-14.23 2.6-15.65 2.6-17.9L2.6-17.9Q2.6-21.55 4.85-23.53 7.1-25.5 11.13-25.5 15.15-25.5 18.75-24.1L18.75-24.1 17.7-18.9Q14.4-20.25 11.25-20.25L11.25-20.25Q9.05-20.25 9.05-18.75L9.05-18.75Q9.05-17.2 12-16.4L12-16.4Q15.1-15.6 17.5-14.1L17.5-14.1Q18.75-13.35 19.6-11.85 20.45-10.35 20.45-8.25L20.45-8.25Q20.45-4.3 17.8-2 15.15 0.3 10.5 0.3 5.85 0.3 2.2-1.85L2.2-1.85ZM32.75-2.05L32.75 11.85 26.25 11.85 26.25-25 31.2-25 32.4-22.35Q34.25-23.9 35.77-24.7 37.3-25.5 39.2-25.5L39.2-25.5Q43.35-25.5 45.52-22.05 47.7-18.6 47.7-12.4 47.7-6.2 44.9-2.93 42.1 0.35 38.3 0.35L38.3 0.35Q35.55 0.35 32.75-2.05L32.75-2.05ZM32.75-17.3L32.75-17.3 32.75-8.15Q34.35-5.55 36.72-5.55 39.1-5.55 40.02-7.25 40.95-8.95 40.95-12.45 40.95-15.95 39.95-17.85 38.95-19.75 37.45-19.75L37.45-19.75Q35.3-19.75 32.75-17.3ZM59.85-35L59.85-28.75 53.35-28.75 53.35-35 59.85-35ZM59.85-25L59.85 0 53.35 0 53.35-25 59.85-25ZM88.94-16.7L88.94 0 82.34 0 82.34-14.95Q82.34-17 81.54-18.28 80.74-19.55 78.89-19.55 77.04-19.55 74.29-17.25L74.29-17.25 74.29 0 67.74 0 67.74-25 73.24-25 74.29-22.75Q76.44-24.35 78.02-24.93 79.59-25.5 81.69-25.5L81.69-25.5Q85.04-25.5 86.99-23.28 88.94-21.05 88.94-16.7L88.94-16.7ZM114.14-6L115.24-1.55Q110.49 0.3 106.44 0.3L106.44 0.3Q94.69 0.3 94.69-12.4L94.69-12.4Q94.69-18.85 97.54-22.18 100.39-25.5 105.84-25.5L105.84-25.5Q110.34-25.5 113.04-22.7 115.74-19.9 115.74-14.4L115.74-14.4Q115.74-12.2 115.54-10.55L115.54-10.55 101.09-10.55Q101.09-7.6 102.69-6.2 104.29-4.8 106.99-4.8 109.69-4.8 114.14-6L114.14-6ZM101.04-15.15L109.49-15.15 109.49-15.5Q109.49-17.8 108.49-19.2 107.49-20.6 105.34-20.6 103.19-20.6 102.14-19.05 101.09-17.5 101.04-15.15L101.04-15.15Z" opacity="1" transform="matrix(1,0,0,1,0,0)" fill="#000000" class="undefined-text-0" data-fill-palette-color="quaternary" id="text-0"></path></svg></g></svg></g><g transform="matrix(1,0,0,1,0,117.50331133632761)"><svg viewBox="0 0 230.39999999999998 14.02311982837879" height="14.02311982837879" width="230.39999999999998"><g transform="matrix(1,0,0,1,0,0)"><svg width="230.39999999999998" viewBox="0.75 -39 815.66 49.65" height="14.02311982837879" data-palette-color="#ffffff"><path d="M0.75-34.45L25.35-34.45 24.85-30.4 15.3-30.4 15.3 0 10.55 0 10.55-30.4 0.75-30.4 0.75-34.45ZM43-26.95Q46.6-26.95 48.62-24.8 50.65-22.65 50.65-18.9L50.65-18.9 50.65 0 46.05 0 46.05-18.25Q46.05-21.05 44.97-22.2 43.9-23.35 41.85-23.35L41.85-23.35Q39.8-23.35 38.2-22.15 36.6-20.95 35.2-18.75L35.2-18.75 35.2 0 30.6 0 30.6-36.9 35.2-37.4 35.2-22.7Q38.3-26.95 43-26.95L43-26.95ZM79.8-13.95Q79.8-12.8 79.7-11.6L79.7-11.6 62.9-11.6Q63.2-7.25 65.09-5.2 67-3.15 70-3.15L70-3.15Q71.9-3.15 73.5-3.7 75.09-4.25 76.84-5.45L76.84-5.45 78.84-2.7Q74.65 0.6 69.65 0.6L69.65 0.6Q64.15 0.6 61.07-3 58-6.6 58-12.9L58-12.9Q58-17 59.32-20.18 60.65-23.35 63.12-25.15 65.59-26.95 68.95-26.95L68.95-26.95Q74.2-26.95 77-23.5 79.8-20.05 79.8-13.95L79.8-13.95ZM75.25-15L75.25-15.3Q75.25-19.2 73.7-21.25 72.15-23.3 69.05-23.3L69.05-23.3Q63.4-23.3 62.9-15L62.9-15 75.25-15ZM112.44-26.95Q116.94-26.95 119.59-23.33 122.24-19.7 122.24-13.2L122.24-13.2Q122.24-9.1 120.99-5.98 119.74-2.85 117.39-1.13 115.04 0.6 111.89 0.6L111.89 0.6Q107.74 0.6 104.89-2.9L104.89-2.9 104.44 0 100.39 0 100.39-36.95 104.99-37.5 104.99-23.05Q107.84-26.95 112.44-26.95L112.44-26.95ZM110.79-3.05Q113.84-3.05 115.57-5.53 117.29-8 117.29-13.2L117.29-13.2Q117.29-18.55 115.69-20.93 114.09-23.3 111.14-23.3L111.14-23.3Q107.64-23.3 104.99-19.2L104.99-19.2 104.99-6.6Q106.04-4.95 107.57-4 109.09-3.05 110.79-3.05L110.79-3.05ZM147.84-6.15Q147.84-4.55 148.39-3.78 148.94-3 150.04-2.6L150.04-2.6 148.99 0.6Q146.94 0.35 145.69-0.55 144.44-1.45 143.84-3.35L143.84-3.35Q141.19 0.6 135.99 0.6L135.99 0.6Q132.09 0.6 129.84-1.6 127.59-3.8 127.59-7.35L127.59-7.35Q127.59-11.55 130.61-13.8 133.64-16.05 139.19-16.05L139.19-16.05 143.24-16.05 143.24-18Q143.24-20.8 141.89-22 140.54-23.2 137.74-23.2L137.74-23.2Q134.84-23.2 130.64-21.8L130.64-21.8 129.49-25.15Q134.39-26.95 138.59-26.95L138.59-26.95Q143.24-26.95 145.54-24.68 147.84-22.4 147.84-18.2L147.84-18.2 147.84-6.15ZM137.04-2.85Q140.99-2.85 143.24-6.95L143.24-6.95 143.24-13 139.79-13Q132.49-13 132.49-7.6L132.49-7.6Q132.49-5.25 133.64-4.05 134.79-2.85 137.04-2.85L137.04-2.85ZM166.89-26.95Q169.24-26.95 171.19-26.28 173.14-25.6 174.94-24.1L174.94-24.1 172.74-21.2Q171.34-22.2 170.01-22.68 168.69-23.15 167.09-23.15L167.09-23.15Q163.89-23.15 162.11-20.6 160.34-18.05 160.34-13.05L160.34-13.05Q160.34-8.05 162.09-5.68 163.84-3.3 167.09-3.3L167.09-3.3Q168.64-3.3 169.94-3.78 171.24-4.25 172.84-5.3L172.84-5.3 174.94-2.3Q171.34 0.6 166.89 0.6L166.89 0.6Q161.54 0.6 158.46-3 155.39-6.6 155.39-12.95L155.39-12.95Q155.39-17.15 156.79-20.3 158.19-23.45 160.76-25.2 163.34-26.95 166.89-26.95L166.89-26.95ZM181.18-36.95L185.78-37.5 185.78 0 181.18 0 181.18-36.95ZM195.78-26.35L200.93-26.35 191.23-14.7 202.03 0 196.53 0 186.08-14.4 195.78-26.35ZM218.83-26.95Q223.33-26.95 225.98-23.33 228.63-19.7 228.63-13.2L228.63-13.2Q228.63-9.1 227.38-5.98 226.13-2.85 223.78-1.13 221.43 0.6 218.28 0.6L218.28 0.6Q214.13 0.6 211.28-2.9L211.28-2.9 210.83 0 206.78 0 206.78-36.95 211.38-37.5 211.38-23.05Q214.23-26.95 218.83-26.95L218.83-26.95ZM217.18-3.05Q220.23-3.05 221.96-5.53 223.68-8 223.68-13.2L223.68-13.2Q223.68-18.55 222.08-20.93 220.48-23.3 217.53-23.3L217.53-23.3Q214.03-23.3 211.38-19.2L211.38-19.2 211.38-6.6Q212.43-4.95 213.96-4 215.48-3.05 217.18-3.05L217.18-3.05ZM246.38-26.95Q251.93-26.95 255-23.25 258.08-19.55 258.08-13.2L258.08-13.2Q258.08-9.1 256.68-5.98 255.28-2.85 252.63-1.13 249.98 0.6 246.33 0.6L246.33 0.6Q240.78 0.6 237.68-3.1 234.58-6.8 234.58-13.15L234.58-13.15Q234.58-17.25 235.98-20.38 237.38-23.5 240.03-25.23 242.68-26.95 246.38-26.95L246.38-26.95ZM246.38-23.25Q239.53-23.25 239.53-13.15L239.53-13.15Q239.53-3.1 246.33-3.1L246.33-3.1Q253.13-3.1 253.13-13.2L253.13-13.2Q253.13-23.25 246.38-23.25L246.38-23.25ZM278.07-26.95Q281.68-26.95 283.7-24.8 285.73-22.65 285.73-18.9L285.73-18.9 285.73 0 281.13 0 281.13-18.25Q281.13-21.05 280.07-22.2 279.03-23.35 276.98-23.35L276.98-23.35Q274.88-23.35 273.28-22.15 271.68-20.95 270.28-18.7L270.28-18.7 270.28 0 265.68 0 265.68-26.35 269.63-26.35 270.03-22.45Q271.43-24.55 273.5-25.75 275.57-26.95 278.07-26.95L278.07-26.95ZM314.87-13.95Q314.87-12.8 314.77-11.6L314.77-11.6 297.97-11.6Q298.27-7.25 300.17-5.2 302.07-3.15 305.07-3.15L305.07-3.15Q306.97-3.15 308.57-3.7 310.17-4.25 311.92-5.45L311.92-5.45 313.92-2.7Q309.72 0.6 304.72 0.6L304.72 0.6Q299.22 0.6 296.15-3 293.07-6.6 293.07-12.9L293.07-12.9Q293.07-17 294.4-20.18 295.72-23.35 298.2-25.15 300.67-26.95 304.02-26.95L304.02-26.95Q309.27-26.95 312.07-23.5 314.87-20.05 314.87-13.95L314.87-13.95ZM310.32-15L310.32-15.3Q310.32-19.2 308.77-21.25 307.22-23.3 304.12-23.3L304.12-23.3Q298.47-23.3 297.97-15L297.97-15 310.32-15ZM345.37-26.95Q350.92-26.95 353.99-23.25 357.07-19.55 357.07-13.2L357.07-13.2Q357.07-9.1 355.67-5.98 354.27-2.85 351.62-1.13 348.97 0.6 345.32 0.6L345.32 0.6Q339.77 0.6 336.67-3.1 333.57-6.8 333.57-13.15L333.57-13.15Q333.57-17.25 334.97-20.38 336.37-23.5 339.02-25.23 341.67-26.95 345.37-26.95L345.37-26.95ZM345.37-23.25Q338.52-23.25 338.52-13.15L338.52-13.15Q338.52-3.1 345.32-3.1L345.32-3.1Q352.12-3.1 352.12-13.2L352.12-13.2Q352.12-23.25 345.37-23.25L345.37-23.25ZM373.62-33.8Q371.52-33.8 370.62-32.88 369.72-31.95 369.72-30L369.72-30 369.72-26.35 376.12-26.35 375.62-22.8 369.72-22.8 369.72 0 365.12 0 365.12-22.8 360.42-22.8 360.42-26.35 365.12-26.35 365.12-29.95Q365.12-33.35 367.29-35.43 369.47-37.5 373.37-37.5L373.37-37.5Q375.17-37.5 376.59-37.18 378.02-36.85 379.67-36.15L379.67-36.15 378.22-32.8Q375.97-33.8 373.62-33.8L373.62-33.8ZM414.01-26.35L405.21 0.15Q403.66 4.75 400.89 7.43 398.11 10.1 392.96 10.65L392.96 10.65 392.46 7.05Q395.06 6.6 396.61 5.75 398.16 4.9 399.09 3.58 400.01 2.25 400.81 0L400.81 0 399.26 0 390.41-26.35 395.31-26.35 402.36-3.35 409.26-26.35 414.01-26.35ZM429.16-26.95Q434.71-26.95 437.78-23.25 440.86-19.55 440.86-13.2L440.86-13.2Q440.86-9.1 439.46-5.98 438.06-2.85 435.41-1.13 432.76 0.6 429.11 0.6L429.11 0.6Q423.56 0.6 420.46-3.1 417.36-6.8 417.36-13.15L417.36-13.15Q417.36-17.25 418.76-20.38 420.16-23.5 422.81-25.23 425.46-26.95 429.16-26.95L429.16-26.95ZM429.16-23.25Q422.31-23.25 422.31-13.15L422.31-13.15Q422.31-3.1 429.11-3.1L429.11-3.1Q435.91-3.1 435.91-13.2L435.91-13.2Q435.91-23.25 429.16-23.25L429.16-23.25ZM468.06-26.35L468.06 0 464.11 0 463.76-4.1Q462.26-1.65 460.31-0.53 458.36 0.6 455.56 0.6L455.56 0.6Q452.11 0.6 450.16-1.5 448.21-3.6 448.21-7.45L448.21-7.45 448.21-26.35 452.81-26.35 452.81-7.95Q452.81-5.25 453.76-4.13 454.71-3 456.86-3L456.86-3Q460.71-3 463.46-7.55L463.46-7.55 463.46-26.35 468.06-26.35ZM489-26.95Q490.4-26.95 491.6-26.65L491.6-26.65 490.75-22.15Q489.55-22.45 488.45-22.45L488.45-22.45Q486-22.45 484.5-20.65 483-18.85 482.15-15.05L482.15-15.05 482.15 0 477.55 0 477.55-26.35 481.5-26.35 481.95-21Q483-23.95 484.8-25.45 486.6-26.95 489-26.95L489-26.95ZM525.9-37.5L530.5-36.95 530.5 0 526.45 0 526-3.65Q524.7-1.65 522.75-0.53 520.8 0.6 518.4 0.6L518.4 0.6Q513.7 0.6 511.07-3.1 508.45-6.8 508.45-13.05L508.45-13.05Q508.45-17.1 509.7-20.25 510.95-23.4 513.3-25.18 515.65-26.95 518.8-26.95L518.8-26.95Q522.85-26.95 525.9-23.7L525.9-23.7 525.9-37.5ZM519.4-3.05Q521.5-3.05 523-4.03 524.5-5 525.9-6.95L525.9-6.95 525.9-19.85Q524.6-21.55 523.12-22.43 521.65-23.3 519.8-23.3L519.8-23.3Q516.75-23.3 515.07-20.75 513.4-18.2 513.4-13.15L513.4-13.15Q513.4-8.05 514.95-5.55 516.5-3.05 519.4-3.05L519.4-3.05ZM557.75-6.15Q557.75-4.55 558.29-3.78 558.85-3 559.95-2.6L559.95-2.6 558.89 0.6Q556.85 0.35 555.6-0.55 554.35-1.45 553.75-3.35L553.75-3.35Q551.1 0.6 545.89 0.6L545.89 0.6Q542 0.6 539.75-1.6 537.5-3.8 537.5-7.35L537.5-7.35Q537.5-11.55 540.52-13.8 543.54-16.05 549.1-16.05L549.1-16.05 553.14-16.05 553.14-18Q553.14-20.8 551.79-22 550.45-23.2 547.64-23.2L547.64-23.2Q544.75-23.2 540.54-21.8L540.54-21.8 539.39-25.15Q544.29-26.95 548.5-26.95L548.5-26.95Q553.14-26.95 555.45-24.68 557.75-22.4 557.75-18.2L557.75-18.2 557.75-6.15ZM546.95-2.85Q550.89-2.85 553.14-6.95L553.14-6.95 553.14-13 549.7-13Q542.39-13 542.39-7.6L542.39-7.6Q542.39-5.25 543.54-4.05 544.7-2.85 546.95-2.85L546.95-2.85ZM578.74-4.25L580.49-1.2Q577.89 0.6 574.59 0.6L574.59 0.6Q571.24 0.6 569.37-1.33 567.49-3.25 567.49-6.9L567.49-6.9 567.49-22.8 562.89-22.8 562.89-26.35 567.49-26.35 567.49-32.3 572.09-32.85 572.09-26.35 578.34-26.35 577.84-22.8 572.09-22.8 572.09-7.1Q572.09-5.05 572.82-4.13 573.54-3.2 575.24-3.2L575.24-3.2Q576.79-3.2 578.74-4.25L578.74-4.25ZM602.99-6.15Q602.99-4.55 603.54-3.78 604.09-3 605.19-2.6L605.19-2.6 604.14 0.6Q602.09 0.35 600.84-0.55 599.59-1.45 598.99-3.35L598.99-3.35Q596.34 0.6 591.14 0.6L591.14 0.6Q587.24 0.6 584.99-1.6 582.74-3.8 582.74-7.35L582.74-7.35Q582.74-11.55 585.76-13.8 588.79-16.05 594.34-16.05L594.34-16.05 598.39-16.05 598.39-18Q598.39-20.8 597.04-22 595.69-23.2 592.89-23.2L592.89-23.2Q589.99-23.2 585.79-21.8L585.79-21.8 584.64-25.15Q589.54-26.95 593.74-26.95L593.74-26.95Q598.39-26.95 600.69-24.68 602.99-22.4 602.99-18.2L602.99-18.2 602.99-6.15ZM592.19-2.85Q596.14-2.85 598.39-6.95L598.39-6.95 598.39-13 594.94-13Q587.64-13 587.64-7.6L587.64-7.6Q587.64-5.25 588.79-4.05 589.94-2.85 592.19-2.85L592.19-2.85ZM637.78-26.95Q642.83-26.95 645.18-23.35 647.53-19.75 647.53-13.2L647.53-13.2Q647.53-7 644.83-3.2 642.13 0.6 637.18 0.6L637.18 0.6Q632.78 0.6 630.28-2.4L630.28-2.4 630.28 10.1 625.68 10.65 625.68-26.35 629.63-26.35 629.98-22.8Q631.43-24.8 633.48-25.88 635.53-26.95 637.78-26.95L637.78-26.95ZM636.08-3.15Q642.58-3.15 642.58-13.2L642.58-13.2Q642.58-23.3 636.63-23.3L636.63-23.3Q634.68-23.3 633.08-22.15 631.48-21 630.28-19.2L630.28-19.2 630.28-6.35Q631.28-4.8 632.78-3.98 634.28-3.15 636.08-3.15L636.08-3.15ZM655.38-26.35L659.98-26.35 659.98 0 655.38 0 655.38-26.35ZM657.63-39Q659.08-39 659.98-38.1 660.88-37.2 660.88-35.85L660.88-35.85Q660.88-34.5 659.98-33.63 659.08-32.75 657.63-32.75L657.63-32.75Q656.23-32.75 655.33-33.63 654.43-34.5 654.43-35.85L654.43-35.85Q654.43-37.2 655.33-38.1 656.23-39 657.63-39L657.63-39ZM681.58-26.95Q686.63-26.95 688.98-23.35 691.33-19.75 691.33-13.2L691.33-13.2Q691.33-7 688.63-3.2 685.93 0.6 680.98 0.6L680.98 0.6Q676.58 0.6 674.08-2.4L674.08-2.4 674.08 10.1 669.48 10.65 669.48-26.35 673.43-26.35 673.78-22.8Q675.23-24.8 677.28-25.88 679.33-26.95 681.58-26.95L681.58-26.95ZM679.88-3.15Q686.38-3.15 686.38-13.2L686.38-13.2Q686.38-23.3 680.43-23.3L680.43-23.3Q678.48-23.3 676.88-22.15 675.28-21 674.08-19.2L674.08-19.2 674.08-6.35Q675.08-4.8 676.58-3.98 678.08-3.15 679.88-3.15L679.88-3.15ZM719.08-13.95Q719.08-12.8 718.98-11.6L718.98-11.6 702.18-11.6Q702.48-7.25 704.38-5.2 706.28-3.15 709.28-3.15L709.28-3.15Q711.18-3.15 712.78-3.7 714.38-4.25 716.13-5.45L716.13-5.45 718.13-2.7Q713.93 0.6 708.93 0.6L708.93 0.6Q703.43 0.6 700.35-3 697.28-6.6 697.28-12.9L697.28-12.9Q697.28-17 698.6-20.18 699.93-23.35 702.4-25.15 704.88-26.95 708.23-26.95L708.23-26.95Q713.48-26.95 716.28-23.5 719.08-20.05 719.08-13.95L719.08-13.95ZM714.53-15L714.53-15.3Q714.53-19.2 712.98-21.25 711.43-23.3 708.33-23.3L708.33-23.3Q702.68-23.3 702.18-15L702.18-15 714.53-15ZM731.67 0.6Q729.12 0.6 727.65-0.93 726.17-2.45 726.17-5.2L726.17-5.2 726.17-36.95 730.77-37.5 730.77-5.3Q730.77-4.2 731.15-3.7 731.52-3.2 732.42-3.2L732.42-3.2Q733.37-3.2 734.12-3.5L734.12-3.5 735.32-0.3Q733.67 0.6 731.67 0.6L731.67 0.6ZM741.07-26.35L745.67-26.35 745.67 0 741.07 0 741.07-26.35ZM743.32-39Q744.77-39 745.67-38.1 746.57-37.2 746.57-35.85L746.57-35.85Q746.57-34.5 745.67-33.63 744.77-32.75 743.32-32.75L743.32-32.75Q741.92-32.75 741.02-33.63 740.12-34.5 740.12-35.85L740.12-35.85Q740.12-37.2 741.02-38.1 741.92-39 743.32-39L743.32-39ZM767.57-26.95Q771.17-26.95 773.19-24.8 775.22-22.65 775.22-18.9L775.22-18.9 775.22 0 770.62 0 770.62-18.25Q770.62-21.05 769.57-22.2 768.52-23.35 766.47-23.35L766.47-23.35Q764.37-23.35 762.77-22.15 761.17-20.95 759.77-18.7L759.77-18.7 759.77 0 755.17 0 755.17-26.35 759.12-26.35 759.52-22.45Q760.92-24.55 762.99-25.75 765.07-26.95 767.57-26.95L767.57-26.95ZM804.37-13.95Q804.37-12.8 804.27-11.6L804.27-11.6 787.47-11.6Q787.77-7.25 789.67-5.2 791.57-3.15 794.57-3.15L794.57-3.15Q796.47-3.15 798.07-3.7 799.67-4.25 801.42-5.45L801.42-5.45 803.42-2.7Q799.22 0.6 794.22 0.6L794.22 0.6Q788.72 0.6 785.64-3 782.57-6.6 782.57-12.9L782.57-12.9Q782.57-17 783.89-20.18 785.22-23.35 787.69-25.15 790.17-26.95 793.52-26.95L793.52-26.95Q798.77-26.95 801.57-23.5 804.37-20.05 804.37-13.95L804.37-13.95ZM799.82-15L799.82-15.3Q799.82-19.2 798.27-21.25 796.72-23.3 793.62-23.3L793.62-23.3Q787.97-23.3 787.47-15L787.47-15 799.82-15ZM812.91-6.35Q814.41-6.35 815.41-5.35 816.41-4.35 816.41-2.9L816.41-2.9Q816.41-1.45 815.41-0.43 814.41 0.6 812.91 0.6L812.91 0.6Q811.46 0.6 810.46-0.43 809.46-1.45 809.46-2.9L809.46-2.9Q809.46-4.35 810.46-5.35 811.46-6.35 812.91-6.35L812.91-6.35Z" opacity="1" transform="matrix(1,0,0,1,0,0)" fill="#000000" class="undefined-text-1" data-fill-palette-color="quaternary" id="text-1"></path></svg></g></svg></g></svg></g></svg></g><g transform="matrix(1,0,0,1,44.0064,0)"><svg viewBox="0 0 142.38719999999998 138.82248509193775" height="138.82248509193775" width="142.38719999999998"><g><svg xmlns="http://www.w3.org/2000/svg" data-name="Layer 1" viewBox="9.65 7.75 70.69999999999999 68.92999999999999" x="0" y="0" height="138.82248509193775" width="142.38719999999998" class="icon-icon-0" data-fill-palette-color="quaternary" id="icon-0"><path d="M14.06 48a1 1 0 0 1 1.41 0.13 1 1 0 0 1-0.14 1.41 1 1 0 0 1-0.64 0.23 1 1 0 0 1-0.77-0.37A1 1 0 0 1 14.06 48Zm2.43 5.36a1 1 0 0 1-1 0.73 1.25 1.25 0 0 1-0.27 0 1 1 0 1 1 1.23-0.69Zm1.9-6.64a1 1 0 1 1 0.63-0.23A1 1 0 0 1 18.39 46.68ZM21 54.59a1 1 0 0 1-1 0.73 0.83 0.83 0 0 1-0.27 0 1 1 0 0 1-0.7-1.23 1 1 0 0 1 1.24-0.69A1 1 0 0 1 21 54.59Zm1.7-11.19a1 1 0 0 1-1.41-0.13A1 1 0 1 1 22.85 42 1 1 0 0 1 22.72 43.4Zm0.71-18.69a1 1 0 0 1-0.92 0.6 0.91 0.91 0 0 1-0.39-0.08 1 1 0 0 1-0.61-0.92 1 1 0 0 1 0.08-0.39 1 1 0 0 1 0.93-0.61 1 1 0 0 1 0.39 0.08A1 1 0 0 1 23.43 24.71Zm2.12 31.15a1 1 0 0 1-1 0.73 0.89 0.89 0 0 1-0.27 0 1 1 0 1 1 1.24-0.69Zm0.86-15.5a1 1 0 0 1-0.64 0.22 1 1 0 0 1-0.77-0.36 1 1 0 0 1 0.14-1.41 1 1 0 0 1 1.4 0.14A1 1 0 0 1 26.41 40.36Zm0.88-13a1.1 1.1 0 0 1-0.39-0.08 1 1 0 1 1 0.39 0.08Zm2.78 29.77a1 1 0 0 1-1 0.73 1.24 1.24 0 0 1-0.27 0 1 1 0 0 1-0.69-1.24 1 1 0 0 1 1.23-0.69A1 1 0 0 1 30.07 57.13Zm0-19.82a1 1 0 0 1-1.41-0.14 1 1 0 1 1 1.41 0.14ZM67 22.46a1 1 0 1 1 0.45 1.95l-0.22 0a1 1 0 0 1-0.23-2ZM65.36 35.1a1 1 0 1 1 0.91 1.42 1.05 1.05 0 0 1-0.41-0.09A1 1 0 0 1 65.36 35.1ZM61.92 23.63a1 1 0 1 1 0.45 1.95 0.84 0.84 0 0 1-0.22 0 1 1 0 0 1-1-0.78A1 1 0 0 1 61.92 23.63ZM56.86 24.8a1 1 0 1 1 0.45 2l-0.22 0a1 1 0 0 1-0.23-2Zm-16-7.5a1 1 0 1 1 0.93 1.36 1.13 1.13 0 0 1-0.36-0.06A1 1 0 0 1 40.81 17.3ZM42.88 29a1 1 0 0 1-0.74 1.2l-0.23 0a1 1 0 1 1 1-1.23Zm-6.74 0.68a1 1 0 0 1 1.71 0.71 0.69 0.69 0 0 1 0 0.2 0.85 0.85 0 0 1-0.06 0.19 0.68 0.68 0 0 1-0.09 0.17 1.68 1.68 0 0 1-0.12 0.15 1 1 0 0 1-0.71 0.29 1 1 0 0 1-0.38-0.07 1.2 1.2 0 0 1-0.33-0.22 1 1 0 0 1-0.29-0.71A1.05 1.05 0 0 1 36.14 29.73Zm1.63 21h0a1 1 0 1 1 1-1A1 1 0 0 1 37.77 50.75ZM39 54.53a1 1 0 0 1-1 1h0a1 1 0 1 1 1-1Zm-1.39-8.61h0a1 1 0 1 1 1-1A1 1 0 0 1 37.51 45.92Zm-0.22-4.82h0a1 1 0 0 1 0-2 1 1 0 0 1 1 1A1 1 0 0 1 37.34 41.1Zm-0.23-4.83h0a1 1 0 1 1 1-1.05A1 1 0 0 1 37.11 36.27Zm-3.18-3.42a1 1 0 0 1-0.14 1.41 1 1 0 0 1-0.63 0.23 1 1 0 0 1-0.77-0.36 1 1 0 0 1 0.13-1.41A1 1 0 0 1 33.93 32.85ZM31.15 28a1 1 0 1 1 0.92 1.39 1.09 1.09 0 0 1-0.39-0.08A1 1 0 0 1 31.15 28Zm1.68 43.88a1 1 0 0 1-0.89 0.54 1.11 1.11 0 0 1-0.46-0.11 1 1 0 0 1 0.92-1.78 1 1 0 0 1 0.43 1.35Zm-0.15-14a1 1 0 1 1 1.92 0.54 1 1 0 0 1-1 0.73 1.24 1.24 0 0 1-0.27 0A1 1 0 0 1 32.68 57.86Zm2.23 10a1 1 0 0 1-0.89 0.54 1 1 0 0 1-0.46-0.11 1 1 0 1 1 1.35-0.43Zm2.07-4a1 1 0 0 1-1.35 0.43 1 1 0 0 1-0.53-1 1 1 0 0 1 0.11-0.39 1 1 0 0 1 1-0.53 1 1 0 0 1 0.39 0.11A1 1 0 0 1 37 63.87Zm1.9-3.76a1 1 0 0 1-0.71 0.3 1 1 0 0 1-0.71-0.3 1 1 0 0 1-0.29-0.7 1.09 1.09 0 0 1 0.08-0.39 1 1 0 0 1 0.21-0.32 1.18 1.18 0 0 1 0.33-0.22 1 1 0 0 1 0.76 0 1.06 1.06 0 0 1 0.33 0.22 1 1 0 0 1 0.29 0.71A1 1 0 0 1 38.88 60.11Zm0.53-33.57a1 1 0 0 1-0.93 0.64 1.13 1.13 0 0 1-0.36-0.06 1 1 0 1 1 1.29-0.58Zm-0.23-5a1 1 0 1 1 0.93 1.36 0.92 0.92 0 0 1-0.36-0.07A1 1 0 0 1 39.18 21.56Zm1.43 12.08a1 1 0 1 1 1.36-0.4 1 1 0 0 1-0.88 0.52A1 1 0 0 1 40.61 33.64Zm0.73 23.78a1 1 0 1 1 1.38 0.32 1 1 0 0 1-0.53 0.16A1 1 0 0 1 41.34 57.42Zm2 5.78a1 1 0 0 1-1.4 0.22 1 1 0 1 1 1.4-0.22Zm0-48.8a0.92 0.92 0 0 1-0.36-0.07 1 1 0 1 1 0.36 0.07Zm1.08 20.2a1 1 0 1 1 0.88 1.48 0.91 0.91 0 0 1-0.48-0.13A1 1 0 0 1 44.45 34.6Zm0.91 20.32A1 1 0 1 1 47 53.86a1 1 0 0 1-0.31 1.37 1 1 0 0 1-0.53 0.16A1 1 0 0 1 45.36 54.92Zm2.4 11.49a1 1 0 0 1-0.81 0.41 1 1 0 0 1-0.58-0.19 1 1 0 0 1-0.22-1.4A1 1 0 0 1 47.54 65 1 1 0 0 1 47.76 66.41Zm-0.57-37.33a0.83 0.83 0 0 1-0.22 0 1 1 0 0 1-1-0.78 1 1 0 0 1 0.75-1.2 1 1 0 0 1 0.45 1.95Zm1.5 7.84a1 1 0 1 1 0.87 1.48 1 1 0 0 1-0.47-0.13A1 1 0 0 1 48.69 36.92Zm0.69 15.49a1 1 0 1 1 1.69-1.06 1 1 0 0 1-0.32 1.37 0.91 0.91 0 0 1-0.52 0.16A1 1 0 0 1 49.38 52.41Zm2.77 17.2a1 1 0 0 1-1.39 0.22 1 1 0 0 1-0.22-1.4 1 1 0 1 1 1.61 1.18Zm0.1-41.7a0.84 0.84 0 0 1-0.22 0 1 1 0 1 1 1-1.22A1 1 0 0 1 52.25 27.91Zm0.68 11.32a1 1 0 1 1 0.87 1.48 1.07 1.07 0 0 1-0.48-0.12A1 1 0 0 1 52.93 39.23ZM53.4 49.9a1 1 0 1 1 1.37 0.31 0.92 0.92 0 0 1-0.53 0.16A1 1 0 0 1 53.4 49.9Zm3.15 22.92a1 1 0 1 1-0.22-1.4A1 1 0 0 1 56.55 72.82Zm0.61-31.27a1 1 0 0 1 1.36-0.4A1 1 0 0 1 58 43a1.07 1.07 0 0 1-0.48-0.12A1 1 0 0 1 57.16 41.55Zm1.63 6.15a0.91 0.91 0 0 1-0.52 0.16A1 1 0 0 1 57.73 46a1 1 0 0 1 1.38 0.32A1 1 0 0 1 58.79 47.7Zm1.7 23.55h-0.07a1 1 0 0 1-0.93-1.07 1 1 0 1 1 1 1.07Zm0.36-5.18h-0.07a1 1 0 1 1 0.07 0Zm0.36-5.18h-0.07A1 1 0 1 1 62.2 60 1 1 0 0 1 61.21 60.89Zm0.35-5.18h-0.07a1 1 0 1 1 0.07 0Zm0.36-5.18h-0.07a1 1 0 1 1 0.07 0Zm1.29-5.8A1.23 1.23 0 0 1 63 45a1 1 0 0 1-0.71 0.3l-0.19 0a1 1 0 0 1-0.19-0.06 0.94 0.94 0 0 1-0.17-0.09 0.65 0.65 0 0 1-0.15-0.13 1 1 0 0 1 0-1.41 0.65 0.65 0 0 1 0.15-0.13l0.17-0.09 0.19-0.06a1 1 0 0 1 0.9 0.28 1.23 1.23 0 0 1 0.22 0.32 1 1 0 0 1 0.07 0.39A1 1 0 0 1 63.21 44.73Zm2-4.39a1 1 0 0 1-0.91 0.59 1 1 0 0 1-0.41-0.09 1 1 0 1 1 1.32-0.5Zm2.18 6.27a1 1 0 0 1-0.91 0.59 1 1 0 0 1-0.4-0.08 1 1 0 1 1 1.31-0.51Zm1.82-15.1a1 1 0 0 1-1.33 0.5 1 1 0 1 1 1.33-0.5Zm4.72 18a1 1 0 1 1 1.82 0.81 1 1 0 0 1-0.91 0.6 1 1 0 0 1-0.41-0.09A1 1 0 0 1 73.91 49.51Zm-2.36-1a1 1 0 0 1-0.91 0.59 1 1 0 0 1-0.41-0.09 1 1 0 1 1 1.32-0.5ZM71.18 27.1a1 1 0 0 1-0.91 0.59 1 1 0 0 1-0.41-0.09 1 1 0 1 1 1.32-0.5Z" fill="#000000" data-fill-palette-color="quaternary"></path><path d="M80.08 50.91L73.62 22.58l-0.27-1.17-1.08-0.52L46.08 8.27 45 7.75l-1.08 0.52L17.73 20.88l-1.08 0.52-0.27 1.17L9.92 50.91l-0.27 1.17 0.75 0.94L28.52 75.74l0.75 0.94H60.73l0.75-0.94L79.6 53l0.75-0.94ZM59.53 74.18H30.47L12.35 51.47l6.47-28.33L45 10.53 71.18 23.14l6.47 28.33Z" fill="#000000" data-fill-palette-color="quaternary"></path><path d="M61.27 58.89a1 1 0 0 0-0.13 2h0.07a1 1 0 0 0 1-0.93A1 1 0 0 0 61.27 58.89Z" fill="#000000" data-fill-palette-color="quaternary"></path><path d="M60.92 64.07a1 1 0 1 0-0.14 2h0.07a1 1 0 0 0 0.07-2Z" fill="#000000" data-fill-palette-color="quaternary"></path><path d="M60.56 69.25a1 1 0 0 0-1.07 0.93 1 1 0 0 0 0.93 1.07h0.07a1 1 0 0 0 0.07-2Z" fill="#000000" data-fill-palette-color="quaternary"></path><path d="M61.63 53.71a1 1 0 0 0-0.14 2h0.07a1 1 0 0 0 0.07-2Z" fill="#000000" data-fill-palette-color="quaternary"></path><path d="M62 48.53a1 1 0 0 0-0.14 2h0.07a1 1 0 0 0 0.07-2Z" fill="#000000" data-fill-palette-color="quaternary"></path><path d="M54.93 71.64a1 1 0 0 0 1.62 1.18 1 1 0 0 0-0.22-1.4A1 1 0 0 0 54.93 71.64Z" fill="#000000" data-fill-palette-color="quaternary"></path><path d="M50.54 68.43a1 1 0 0 0 0.22 1.4 1 1 0 0 0 1.39-0.22 1 1 0 1 0-1.61-1.18Z" fill="#000000" data-fill-palette-color="quaternary"></path><path d="M41.75 62a1 1 0 0 0 0.81 1.59 1 1 0 0 0 0.59-1.81A1 1 0 0 0 41.75 62Z" fill="#000000" data-fill-palette-color="quaternary"></path><path d="M46.15 65.23a1 1 0 0 0 0.22 1.4 1 1 0 0 0 0.58 0.19 1 1 0 1 0-0.8-1.59Z" fill="#000000" data-fill-palette-color="quaternary"></path><path d="M36.09 64.41a1 1 0 0 0 0.89-0.54A1 1 0 0 1 36.09 64.41Z" fill="#000000" data-fill-palette-color="quaternary"></path><path d="M31.06 71a1 1 0 0 1 1.34-0.43 1 1 0 0 0-0.92 1.78 1.11 1.11 0 0 0 0.46 0.11 1 1 0 0 1-0.46-0.12A1 1 0 0 1 31.06 71Z" fill="#000000" data-fill-palette-color="quaternary"></path><path d="M35.1 63.33a1 1 0 0 0 0.53 1 1 1 0 0 0 0.46 0.11 0.91 0.91 0 0 1-0.45-0.11A1 1 0 0 1 35.1 63.33Z" fill="#000000" data-fill-palette-color="quaternary"></path><path d="M33 67.34a1 1 0 0 1 0.11-0.38A1 1 0 0 0 33 67.34Z" fill="#000000" data-fill-palette-color="quaternary"></path><path d="M34.1 66.42a1 1 0 0 0-1 0.54A1 1 0 0 1 34.1 66.42Z" fill="#000000" data-fill-palette-color="quaternary"></path><path d="M36.56 62.53a1 1 0 0 0-0.39-0.11A1 1 0 0 1 37 63.87 1 1 0 0 0 36.56 62.53Z" fill="#000000" data-fill-palette-color="quaternary"></path><path d="M32.83 71.89a1 1 0 0 0 0.07-0.76A1 1 0 0 1 32.83 71.89Z" fill="#000000" data-fill-palette-color="quaternary"></path><path d="M34 68.42a1.08 1.08 0 0 1-0.46-0.11A1 1 0 0 0 34 68.42Z" fill="#000000" data-fill-palette-color="quaternary"></path><path d="M32.9 71.12a1 1 0 0 0-0.5-0.58A1 1 0 0 1 32.9 71.12Z" fill="#000000" data-fill-palette-color="quaternary"></path><path d="M35.1 63.33a1 1 0 0 1 0.11-0.39A1 1 0 0 0 35.1 63.33Z" fill="#000000" data-fill-palette-color="quaternary"></path><path d="M36.17 62.42a1 1 0 0 0-1 0.53A1 1 0 0 1 36.17 62.42Z" fill="#000000" data-fill-palette-color="quaternary"></path><path d="M33 67.34a1 1 0 0 0 0.54 1A1 1 0 0 1 33 67.34Z" fill="#000000" data-fill-palette-color="quaternary"></path><path d="M34.1 66.42a1 1 0 0 1 0.38 0.11A1 1 0 0 0 34.1 66.42Z" fill="#000000" data-fill-palette-color="quaternary"></path><path d="M31.94 72.43a1 1 0 0 0 0.89-0.54A1 1 0 0 1 31.94 72.43Z" fill="#000000" data-fill-palette-color="quaternary"></path><path d="M32.9 71.12A1 1 0 0 0 31.06 71a1 1 0 0 0 0.42 1.34 1 1 0 0 0 0.46 0.12 1 1 0 0 0 1-1.3Z" fill="#000000" data-fill-palette-color="quaternary"></path><path d="M34.48 66.53a1 1 0 0 0-0.92 1.78 1.08 1.08 0 0 0 0.46 0.11 1 1 0 0 0 0.46-1.89Z" fill="#000000" data-fill-palette-color="quaternary"></path><path d="M36.55 62.53a1 1 0 0 0-0.38-0.11 1 1 0 0 0-1 0.53 1 1 0 0 0-0.11 0.39 1 1 0 0 0 0.54 1 0.91 0.91 0 0 0 0.45 0.11 1 1 0 0 0 0.46-1.88Z" fill="#000000" data-fill-palette-color="quaternary"></path><path d="M20.33 53.36a1 1 0 0 0-1.24 0.69 1 1 0 0 0 0.7 1.23 0.83 0.83 0 0 0 0.27 0 1 1 0 0 0 1-0.73A1 1 0 0 0 20.33 53.36Z" fill="#000000" data-fill-palette-color="quaternary"></path><path d="M15.8 52.08A1 1 0 1 0 15.26 54a1.25 1.25 0 0 0 0.27 0 1 1 0 0 0 1-0.73A1 1 0 0 0 15.8 52.08Z" fill="#000000" data-fill-palette-color="quaternary"></path><path d="M29.38 55.9a1 1 0 0 0-1.23 0.69 1 1 0 0 0 0.69 1.24 1.24 1.24 0 0 0 0.27 0 1 1 0 0 0 1-0.73A1 1 0 0 0 29.38 55.9Z" fill="#000000" data-fill-palette-color="quaternary"></path><path d="M33.64 59.13a1 1 0 0 0 1-0.73 1 1 0 1 0-1.23 0.7A1.24 1.24 0 0 0 33.64 59.13Z" fill="#000000" data-fill-palette-color="quaternary"></path><path d="M24.85 54.63a1 1 0 0 0-0.54 1.92 0.89 0.89 0 0 0 0.27 0 1 1 0 0 0 1-0.73A1 1 0 0 0 24.85 54.63Z" fill="#000000" data-fill-palette-color="quaternary"></path><path d="M32.39 34.13a1 1 0 0 0 0.77 0.36 1 1 0 0 0 0.63-0.23 1 1 0 1 0-1.4-0.13Z" fill="#000000" data-fill-palette-color="quaternary"></path><path d="M19.16 45a1 1 0 1 0-0.77 1.64A1 1 0 0 0 19.16 45Z" fill="#000000" data-fill-palette-color="quaternary"></path><path d="M21.44 41.86a1 1 0 0 0-0.13 1.41 1 1 0 0 0 1.41 0.13 1 1 0 0 0-1.28-1.54Z" fill="#000000" data-fill-palette-color="quaternary"></path><path d="M15.33 49.5a1 1 0 0 0 0.14-1.41 1 1 0 0 0-1.55 1.27 1 1 0 0 0 0.77 0.37A1 1 0 0 0 15.33 49.5Z" fill="#000000" data-fill-palette-color="quaternary"></path><path d="M25.14 38.81A1 1 0 0 0 25 40.22a1 1 0 0 0 0.77 0.36 1 1 0 0 0 0.64-0.22 1 1 0 0 0 0.13-1.41A1 1 0 0 0 25.14 38.81Z" fill="#000000" data-fill-palette-color="quaternary"></path><path d="M28.83 35.77a1 1 0 0 0-0.14 1.4 1 1 0 0 0 1.41 0.14 1 1 0 0 0-1.27-1.54Z" fill="#000000" data-fill-palette-color="quaternary"></path><path d="M22.52 23.31a1 1 0 0 0-0.93 0.61A1 1 0 0 1 22.52 23.31Z" fill="#000000" data-fill-palette-color="quaternary"></path><path d="M21.51 24.31a1 1 0 0 1 0.08-0.39A1 1 0 0 0 21.51 24.31Z" fill="#000000" data-fill-palette-color="quaternary"></path><path d="M22.51 25.31a1 1 0 0 0 0.92-0.6A1 1 0 0 1 22.51 25.31Z" fill="#000000" data-fill-palette-color="quaternary"></path><path d="M22.91 23.39a1 1 0 0 0-0.39-0.08 1 1 0 0 1 0.38 0.08 1 1 0 0 1 0.53 1.32A1 1 0 0 0 22.91 23.39Z" fill="#000000" data-fill-palette-color="quaternary"></path><path d="M21.51 24.31a1 1 0 0 0 0.61 0.92A1 1 0 0 1 21.51 24.31Z" fill="#000000" data-fill-palette-color="quaternary"></path><path d="M22.9 23.39a1 1 0 0 0-0.38-0.08 1 1 0 0 0-0.93 0.61 1 1 0 0 0-0.08 0.39 1 1 0 0 0 0.61 0.92 0.91 0.91 0 0 0 0.39 0.08 1 1 0 0 0 0.39-1.92Z" fill="#000000" data-fill-palette-color="quaternary"></path><path d="M31.68 29.32a1.09 1.09 0 0 0 0.39 0.08 1 1 0 1 0-0.39-0.08Z" fill="#000000" data-fill-palette-color="quaternary"></path><path d="M27.69 25.44a1 1 0 1 0-0.79 1.84 1.1 1.1 0 0 0 0.39 0.08 1 1 0 0 0 0.4-1.92Z" fill="#000000" data-fill-palette-color="quaternary"></path><path d="M42.72 57.74a1 1 0 1 0-0.53 0.16A1 1 0 0 0 42.72 57.74Z" fill="#000000" data-fill-palette-color="quaternary"></path><path d="M51.07 51.35a1 1 0 1 0-0.84 1.53 0.91 0.91 0 0 0 0.52-0.16A1 1 0 0 0 51.07 51.35Z" fill="#000000" data-fill-palette-color="quaternary"></path><path d="M55.09 48.84a1 1 0 1 0-0.85 1.53 0.92 0.92 0 0 0 0.53-0.16A1 1 0 0 0 55.09 48.84Z" fill="#000000" data-fill-palette-color="quaternary"></path><path d="M57.73 46a1 1 0 0 0 0.54 1.85 0.91 0.91 0 0 0 0.52-0.16 1 1 0 0 0 0.32-1.37A1 1 0 0 0 57.73 46Z" fill="#000000" data-fill-palette-color="quaternary"></path><path d="M46.74 55.23A1 1 0 0 0 47 53.86a1 1 0 1 0-1.69 1.06 1 1 0 0 0 0.85 0.47A1 1 0 0 0 46.74 55.23Z" fill="#000000" data-fill-palette-color="quaternary"></path><path d="M38.55 58.48a1 1 0 0 0-0.76 0 1.18 1.18 0 0 0-0.33 0.22 1 1 0 0 0-0.21 0.32 1.09 1.09 0 0 0-0.08 0.39 1 1 0 0 0 0.29 0.7 1 1 0 0 0 0.71 0.3 1 1 0 0 0 1-1 1 1 0 0 0-0.29-0.71A1.06 1.06 0 0 0 38.55 58.48Z" fill="#000000" data-fill-palette-color="quaternary"></path><path d="M37.46 43.93a1 1 0 0 0 0 2h0a1 1 0 1 0-0.1-2Z" fill="#000000" data-fill-palette-color="quaternary"></path><path d="M37 54.63a1 1 0 0 0 1 0.95h0a1 1 0 1 0-1-0.95Z" fill="#000000" data-fill-palette-color="quaternary"></path><path d="M37.68 48.75a1 1 0 0 0 0 2h0a1 1 0 1 0-0.09-2Z" fill="#000000" data-fill-palette-color="quaternary"></path><path d="M37.25 39.1a1 1 0 0 0 0 2h0a1 1 0 0 0 1-1A1 1 0 0 0 37.25 39.1Z" fill="#000000" data-fill-palette-color="quaternary"></path><path d="M37 34.27a1 1 0 0 0 0 2h0a1 1 0 1 0-0.09-2Z" fill="#000000" data-fill-palette-color="quaternary"></path><path d="M53.8 40.71a1 1 0 1 0-0.48-0.12A1.07 1.07 0 0 0 53.8 40.71Z" fill="#000000" data-fill-palette-color="quaternary"></path><path d="M46.2 35.56a1 1 0 1 0-1.75-1 1 1 0 0 0 0.4 1.35 0.91 0.91 0 0 0 0.48 0.13A1 1 0 0 0 46.2 35.56Z" fill="#000000" data-fill-palette-color="quaternary"></path><path d="M58 43a1 1 0 1 0-0.88-1.48 1 1 0 0 0 0.4 1.36A1.07 1.07 0 0 0 58 43Z" fill="#000000" data-fill-palette-color="quaternary"></path><path d="M50.44 37.87a1 1 0 1 0-1.35 0.4 1 1 0 0 0 0.47 0.13A1 1 0 0 0 50.44 37.87Z" fill="#000000" data-fill-palette-color="quaternary"></path><path d="M42 33.24a1 1 0 1 0-1.36 0.4 1 1 0 0 0 0.48 0.12A1 1 0 0 0 42 33.24Z" fill="#000000" data-fill-palette-color="quaternary"></path><path d="M43.73 12.47A1 1 0 1 0 43 14.33a0.92 0.92 0 0 0 0.36 0.07 1 1 0 0 0 0.36-1.93Z" fill="#000000" data-fill-palette-color="quaternary"></path><path d="M38.84 25.25a1 1 0 0 0-0.72 1.87 1.13 1.13 0 0 0 0.36 0.06 1 1 0 0 0 0.36-1.93Z" fill="#000000" data-fill-palette-color="quaternary"></path><path d="M41.38 18.6a1.13 1.13 0 0 0 0.36 0.06 1 1 0 1 0-0.93-1.36A1 1 0 0 0 41.38 18.6Z" fill="#000000" data-fill-palette-color="quaternary"></path><path d="M41 22.28a1 1 0 1 0-1.29 0.57 0.92 0.92 0 0 0 0.36 0.07A1 1 0 0 0 41 22.28Z" fill="#000000" data-fill-palette-color="quaternary"></path><path d="M36.47 31.37a1 1 0 0 0 0.38 0.07 1 1 0 0 0 0.71-0.29 1.68 1.68 0 0 0 0.12-0.15 0.68 0.68 0 0 0 0.09-0.17 0.85 0.85 0 0 0 0.06-0.19 0.69 0.69 0 0 0 0-0.2 1 1 0 1 0-2 0 1 1 0 0 0 0.29 0.71A1.2 1.2 0 0 0 36.47 31.37Z" fill="#000000" data-fill-palette-color="quaternary"></path><path d="M53 26.72a1 1 0 1 0-1 1.22 0.84 0.84 0 0 0 0.22 0A1 1 0 0 0 53 26.72Z" fill="#000000" data-fill-palette-color="quaternary"></path><path d="M67.21 24.44l0.22 0a1 1 0 1 0-0.22 0Z" fill="#000000" data-fill-palette-color="quaternary"></path><path d="M41.69 28.3a1 1 0 0 0 0.22 2l0.23 0a1 1 0 0 0-0.45-2Z" fill="#000000" data-fill-palette-color="quaternary"></path><path d="M57.09 26.77l0.22 0a1 1 0 1 0-0.22 0Z" fill="#000000" data-fill-palette-color="quaternary"></path><path d="M46.74 27.13a1 1 0 0 0-0.75 1.2 1 1 0 0 0 1 0.78 0.83 0.83 0 0 0 0.22 0 1 1 0 0 0-0.45-1.95Z" fill="#000000" data-fill-palette-color="quaternary"></path><path d="M62.15 25.61a0.84 0.84 0 0 0 0.22 0 1 1 0 1 0-1.2-0.75A1 1 0 0 0 62.15 25.61Z" fill="#000000" data-fill-palette-color="quaternary"></path><path d="M68.68 30.19A1 1 0 1 0 67.86 32a1 1 0 0 0 1.33-0.5A1 1 0 0 0 68.68 30.19Z" fill="#000000" data-fill-palette-color="quaternary"></path><path d="M64.69 39a1 1 0 0 0-0.82 1.82 1 1 0 0 0 0.41 0.09A1 1 0 0 0 64.69 39Z" fill="#000000" data-fill-palette-color="quaternary"></path><path d="M70.68 25.77a1 1 0 0 0-0.82 1.83 1 1 0 0 0 0.41 0.09 1 1 0 0 0 0.41-1.92Z" fill="#000000" data-fill-palette-color="quaternary"></path><path d="M65.86 36.43a1.05 1.05 0 0 0 0.41 0.09 1 1 0 1 0-0.41-0.09Z" fill="#000000" data-fill-palette-color="quaternary"></path><path d="M63 43.64a1 1 0 0 0-0.9-0.28l-0.19 0.06-0.17 0.09a0.65 0.65 0 0 0-0.15 0.13 1 1 0 0 0 0 1.41 0.65 0.65 0 0 0 0.15 0.13 0.94 0.94 0 0 0 0.17 0.09 1 1 0 0 0 0.19 0.06l0.19 0A1 1 0 0 0 63 45a1.23 1.23 0 0 0 0.22-0.32 1 1 0 0 0 0.07-0.38 1 1 0 0 0-0.07-0.39A1.23 1.23 0 0 0 63 43.64Z" fill="#000000" data-fill-palette-color="quaternary"></path><path d="M69.73 47.65a1 1 0 0 0 0.5 1.32 1 1 0 0 0 0.41 0.09 1 1 0 1 0-0.91-1.41Z" fill="#000000" data-fill-palette-color="quaternary"></path><path d="M66.87 45.29a1 1 0 1 0-0.81 1.83 1 1 0 0 0 0.4 0.08 1 1 0 0 0 0.41-1.91Z" fill="#000000" data-fill-palette-color="quaternary"></path><path d="M74.41 50.83a1 1 0 0 0 0.41 0.09 1 1 0 0 0 0.91-0.6 1 1 0 1 0-1.32 0.51Z" fill="#000000" data-fill-palette-color="quaternary"></path></svg></g></svg></g><g></g></svg></g></svg></g></svg></g></svg></g><defs></defs></svg><rect width="576" height="360" fill="none" stroke="none" visibility="hidden"></rect></g></svg></g></svg>